# xmcd
#
# Track frame offsets: 
#        150
#        9930
#        25037
#        36230
#        51225
#        63120
#        72982
#        81457
#        93007
#        103130
#        113430
#        130002
#
# Disc length: 1905 seconds
#
# Revision: 2
# Processed by: cddbd v1.5.2PL0 Copyright (c) Steve Scherf et al.
# Submitted via: ExactAudioCopy v0.95b4
#
DISCID=8e076f0c
DTITLE=Ernestine Anderson - The New Sound of Ernestine Anderson
DYEAR=1963
DGENRE=Vocal Jazz
TTITLE0=Out of My Continental Mind
TTITLE1=One Never Knows
TTITLE2=You Deserve The Best
TTITLE3=Evil Spelled Backwards Means Live
TTITLE4=If I Love Again
TTITLE5=Keep An Eye On Love
TTITLE6=I Believe In You
TTITLE7=The Best Is Yet To Come
TTITLE8=Quiet Nights
TTITLE9=You're Not The Guy For Me
TTITLE10=Will I Find My Love Today
TTITLE11=One Heartache Ago
EXTD=
EXTT0=
EXTT1=
EXTT2=
EXTT3=
EXTT4=
EXTT5=
EXTT6=
EXTT7=
EXTT8=
EXTT9=
EXTT10=
EXTT11=
PLAYORDER=
